<?xml version="1.0" encoding="UTF-8" standalone="no"?>
<!DOCTYPE svg PUBLIC "-//W3C//DTD SVG 1.1//EN" "http://www.w3.org/Graphics/SVG/1.1/DTD/svg11.dtd">
<svg width="100%" height="100%" viewBox="0 0 21 21" version="1.1" xmlns="http://www.w3.org/2000/svg" xmlns:xlink="http://www.w3.org/1999/xlink" xml:space="preserve" xmlns:serif="http://www.serif.com/" style="fill-rule:evenodd;clip-rule:evenodd;stroke-linejoin:round;stroke-miterlimit:2;">
    <g>
        <path id="logo" d="M9.619,6.428L9.619,9.836L4.819,9.836C3.605,9.836 2.606,10.837 2.606,12.051L2.606,14.322L2.128,14.322C1.131,14.322 0.321,15.131 0.321,16.128L0.321,18.622C0.321,19.619 1.131,20.428 2.128,20.428C2.128,20.428 4.622,20.428 4.622,20.428C5.619,20.428 6.428,19.619 6.428,18.622C6.428,18.622 6.428,16.128 6.428,16.128C6.428,15.131 5.619,14.322 4.622,14.322L4.118,14.322L4.118,12.051C4.118,11.648 4.416,11.348 4.819,11.348L9.619,11.348L9.619,14.322L9.129,14.322C8.132,14.322 7.323,15.131 7.323,16.128C7.323,16.128 7.323,18.622 7.323,18.622C7.323,19.619 8.132,20.428 9.129,20.428C9.129,20.428 11.623,20.428 11.623,20.428C12.62,20.428 13.43,19.619 13.43,18.622C13.43,18.622 13.43,16.128 13.43,16.128C13.43,15.131 12.62,14.322 11.623,14.322L11.13,14.322L11.13,11.348L15.906,11.348C16.309,11.348 16.607,11.648 16.607,12.051L16.607,14.322L16.131,14.322C15.134,14.322 14.324,15.131 14.324,16.128L14.324,18.622C14.324,19.619 15.134,20.428 16.131,20.428C16.131,20.428 18.625,20.428 18.625,20.428C19.622,20.428 20.431,19.619 20.431,18.622C20.431,18.622 20.431,16.128 20.431,16.128C20.431,15.131 19.622,14.322 18.625,14.322L18.121,14.322L18.121,12.051C18.121,10.837 17.12,9.836 15.906,9.836L11.13,9.836L11.131,6.428L11.623,6.428C12.62,6.428 13.43,5.619 13.43,4.622C13.43,4.622 13.43,2.128 13.43,2.128C13.43,1.131 12.62,0.321 11.623,0.321L9.129,0.321C8.132,0.321 7.323,1.131 7.323,2.128C7.323,2.128 7.323,4.622 7.323,4.622C7.323,5.619 8.132,6.428 9.129,6.428L9.619,6.428Z" style="fill:rgb(39,174,96);fill-rule:nonzero;"/>
    </g>
</svg>
