<svg width="7.32mm" height="7.32mm" version="1.1" viewBox="0 0 7.32 7.32" xmlns="http://www.w3.org/2000/svg">
 <g transform="translate(-102.87 64.237)">
  <g transform="translate(1163.4 -514.75)">
   <path d="m-1072.3 453.17c-0.3213 0-0.5855 0.26475-0.5855 0.58603v0.72398h0.4v-0.72398c0-0.1066 0.079-0.18606 0.1855-0.18606h2.9337c0.1066 0 0.1855 0.0795 0.1855 0.18606v0.72398h0.4005v-0.72398c0-0.32128-0.2647-0.58603-0.586-0.58603z" color="#000000" color-rendering="auto" dominant-baseline="auto" fill="#2c3e50" image-rendering="auto" shape-rendering="auto" solid-color="#000000" stop-color="#000000" style="font-feature-settings:normal;font-variant-alternates:normal;font-variant-caps:normal;font-variant-east-asian:normal;font-variant-ligatures:normal;font-variant-numeric:normal;font-variant-position:normal;font-variation-settings:normal;inline-size:0;isolation:auto;mix-blend-mode:normal;paint-order:stroke markers fill;shape-margin:0;shape-padding:0;text-decoration-color:#000000;text-decoration-line:none;text-decoration-style:solid;text-indent:0;text-orientation:mixed;text-transform:none;white-space:normal"/>
   <path d="m-1070.8 451.46-1e-4 3.7042z" fill="none" stroke="#2c3e50" stroke-width=".4"/>
   <g stroke="#2c3e50" stroke-linecap="round" stroke-linejoin="round" stroke-width=".4">
    <rect x="-1071.5" y="450.86" width="1.2159" height="1.2159" rx=".27796" ry=".27796" fill="#27ae60" style="paint-order:normal"/>
    <rect x="-1073.3" y="454.56" width="1.2159" height="1.2159" rx=".27796" ry=".27796" fill="#27ae60" style="paint-order:normal"/>
    <rect x="-1071.5" y="454.56" width="1.2159" height="1.2159" rx=".27796" ry=".27796" fill="#e74c3c" style="paint-order:normal"/>
    <rect x="-1069.6" y="454.56" width="1.2159" height="1.2159" rx=".27796" ry=".27796" fill="#27ae60" style="paint-order:normal"/>
   </g>
  </g>
  <g transform="translate(1155.7 -507.24)">
   <path d="m-1065.6 453.13c-0.3213 0-0.5855 0.26475-0.5855 0.58603v0.72398h0.3999v-0.72398c0-0.1066 0.079-0.18606 0.1856-0.18606h2.9336c0.1066 0 0.1856 0.0795 0.1856 0.18606v0.72398h0.4005v-0.72398c0-0.32128-0.2647-0.58603-0.5861-0.58603z" color="#000000" color-rendering="auto" dominant-baseline="auto" fill="#2c3e50" image-rendering="auto" shape-rendering="auto" solid-color="#000000" stop-color="#000000" style="font-feature-settings:normal;font-variant-alternates:normal;font-variant-caps:normal;font-variant-east-asian:normal;font-variant-ligatures:normal;font-variant-numeric:normal;font-variant-position:normal;font-variation-settings:normal;inline-size:0;isolation:auto;mix-blend-mode:normal;paint-order:stroke markers fill;shape-margin:0;shape-padding:0;text-decoration-color:#000000;text-decoration-line:none;text-decoration-style:solid;text-indent:0;text-orientation:mixed;text-transform:none;white-space:normal"/>
   <path d="m-1064.1 451.42-1e-4 3.7042z" fill="none" stroke="#2c3e50" stroke-width=".4"/>
   <rect x="-1064.8" y="450.82" width="1.2159" height="1.2159" rx=".27796" ry=".27796" fill="#27ae60" stroke="#2c3e50" stroke-linecap="round" stroke-linejoin="round" stroke-width=".4" style="paint-order:normal"/>
   <g fill="#3498db" stroke="#2c3e50" stroke-linecap="round" stroke-linejoin="round" stroke-width=".4">
    <rect x="-1066.6" y="454.52" width="1.2159" height="1.2159" rx=".27796" ry=".27796" style="paint-order:normal"/>
    <rect x="-1064.8" y="454.52" width="1.2159" height="1.2159" rx=".27796" ry=".27796" style="paint-order:normal"/>
    <rect x="-1062.9" y="454.52" width="1.2159" height="1.2159" rx=".27796" ry=".27796" style="paint-order:normal"/>
   </g>
  </g>
  <g transform="translate(1161.4 -514.34)">
   <path d="m-1078.9 453.13c-0.3213 0-0.5855 0.26475-0.5855 0.58603v0.72398h0.4v-0.72398c0-0.1066 0.079-0.18606 0.1855-0.18606h2.9337c0.1066 0 0.1855 0.0795 0.1855 0.18606v0.72398h0.4005v-0.72398c0-0.32128-0.2647-0.58603-0.586-0.58603z" color="#000000" color-rendering="auto" dominant-baseline="auto" fill="#2c3e50" image-rendering="auto" shape-rendering="auto" solid-color="#000000" stop-color="#000000" style="font-feature-settings:normal;font-variant-alternates:normal;font-variant-caps:normal;font-variant-east-asian:normal;font-variant-ligatures:normal;font-variant-numeric:normal;font-variant-position:normal;font-variation-settings:normal;inline-size:0;isolation:auto;mix-blend-mode:normal;paint-order:stroke markers fill;shape-margin:0;shape-padding:0;text-decoration-color:#000000;text-decoration-line:none;text-decoration-style:solid;text-indent:0;text-orientation:mixed;text-transform:none;white-space:normal"/>
   <path d="m-1077.4 451.42-1e-4 3.7042z" fill="none" stroke="#2c3e50" stroke-width=".4"/>
   <g fill="#27ae60" stroke="#2c3e50" stroke-linecap="round" stroke-linejoin="round" stroke-width=".4">
    <rect x="-1078" y="450.81" width="1.2159" height="1.2159" rx=".27796" ry=".27796" style="paint-order:normal"/>
    <rect x="-1079.9" y="454.52" width="1.2159" height="1.2159" rx=".27796" ry=".27796" style="paint-order:normal"/>
    <rect x="-1078" y="454.52" width="1.2159" height="1.2159" rx=".27796" ry=".27796" style="paint-order:normal"/>
    <rect x="-1076.2" y="454.52" width="1.2159" height="1.2159" rx=".27796" ry=".27796" style="paint-order:normal"/>
   </g>
  </g>
  <g transform="translate(1142.6 -507.35)">
   <path d="m-1059.3 453.09c-0.3213 0-0.5855 0.26475-0.5855 0.58603v0.72398h0.3999v-0.72398c0-0.1066 0.079-0.18606 0.1856-0.18606h2.9336c0.1066 0 0.1856 0.0795 0.1856 0.18606v0.72398h0.4005v-0.72398c0-0.32128-0.2647-0.58603-0.5861-0.58603z" color="#000000" color-rendering="auto" dominant-baseline="auto" fill="#2c3e50" image-rendering="auto" shape-rendering="auto" solid-color="#000000" stop-color="#000000" style="font-feature-settings:normal;font-variant-alternates:normal;font-variant-caps:normal;font-variant-east-asian:normal;font-variant-ligatures:normal;font-variant-numeric:normal;font-variant-position:normal;font-variation-settings:normal;inline-size:0;isolation:auto;mix-blend-mode:normal;paint-order:stroke markers fill;shape-margin:0;shape-padding:0;text-decoration-color:#000000;text-decoration-line:none;text-decoration-style:solid;text-indent:0;text-orientation:mixed;text-transform:none;white-space:normal"/>
   <path d="m-1057.8 451.38-1e-4 3.7042z" fill="none" stroke="#2c3e50" stroke-width=".4"/>
   <g stroke="#2c3e50" stroke-linecap="round" stroke-linejoin="round" stroke-width=".4">
    <rect x="-1058.4" y="450.78" width="1.2159" height="1.2159" rx=".27796" ry=".27796" fill="#27ae60" style="paint-order:normal"/>
    <rect x="-1060.3" y="454.48" width="1.2159" height="1.2159" rx=".27796" ry=".27796" fill="#3498db" style="paint-order:normal"/>
    <rect x="-1058.4" y="454.48" width="1.2159" height="1.2159" rx=".27796" ry=".27796" fill="#9b59b6" style="paint-order:normal"/>
    <rect x="-1056.5" y="454.48" width="1.2159" height="1.2159" rx=".27796" ry=".27796" fill="#3498db" style="paint-order:normal"/>
   </g>
  </g>
  <g>
   <path d="m104.57-60.767c-0.42835 0-0.78059 0.35297-0.78059 0.7813v0.96522h0.53329v-0.96522c0-0.14213 0.10533-0.24806 0.2473-0.24806h3.9113c0.14221 0 0.24731 0.10598 0.24731 0.24806v0.96522h0.53395v-0.96522c0-0.42834-0.35291-0.7813-0.78126-0.7813z" color="#000000" color-rendering="auto" dominant-baseline="auto" fill="#27ae60" image-rendering="auto" shape-rendering="auto" solid-color="#000000" stop-color="#000000" style="font-feature-settings:normal;font-variant-alternates:normal;font-variant-caps:normal;font-variant-east-asian:normal;font-variant-ligatures:normal;font-variant-numeric:normal;font-variant-position:normal;font-variation-settings:normal;inline-size:0;isolation:auto;mix-blend-mode:normal;paint-order:stroke markers fill;shape-margin:0;shape-padding:0;text-decoration-color:#000000;text-decoration-line:none;text-decoration-style:solid;text-indent:0;text-orientation:mixed;text-transform:none;white-space:normal"/>
   <path d="m106.53-63.046-1.4e-4 4.9384z" fill="#ecf0f1" stroke="#27ae60" stroke-width=".53328"/>
   <g fill="#27ae60" stroke="#27ae60" stroke-linecap="round" stroke-linejoin="round" stroke-width=".53328">
    <rect x="105.72" y="-63.857" width="1.621" height="1.621" rx=".37058" ry=".37058" style="paint-order:normal"/>
    <rect x="103.25" y="-58.918" width="1.621" height="1.621" rx=".37058" ry=".37058" style="paint-order:normal"/>
    <rect x="105.72" y="-58.918" width="1.621" height="1.621" rx=".37058" ry=".37058" style="paint-order:normal"/>
    <rect x="108.19" y="-58.918" width="1.621" height="1.621" rx=".37058" ry=".37058" style="paint-order:normal"/>
   </g>
  </g>
  <circle cx="116.18" cy="-60.577" r="3.2951" fill="#ecf0f1" style="paint-order:normal"/>
 </g>
</svg>
