<?xml version="1.0" encoding="UTF-8" standalone="no"?>
<!DOCTYPE svg PUBLIC "-//W3C//DTD SVG 1.1//EN" "http://www.w3.org/Graphics/SVG/1.1/DTD/svg11.dtd">
<svg width="100%" height="100%" viewBox="0 0 38 29" version="1.1" xmlns="http://www.w3.org/2000/svg" xmlns:xlink="http://www.w3.org/1999/xlink" xml:space="preserve" xmlns:serif="http://www.serif.com/" style="fill-rule:evenodd;clip-rule:evenodd;stroke-linejoin:round;stroke-miterlimit:2;">
    <g id="layer1" transform="matrix(1,0,0,1,-283.045,101.871)">
        <g id="main">
            <g transform="matrix(1,0,0,1,283.045,-101.871)">
                <g id="outline">
                    <path d="M17.853,7.91L17.853,9.472C17.853,9.472 14.762,9.472 14.762,9.472C13.577,9.472 12.602,10.448 12.602,11.633L12.602,12.839C11.64,12.907 10.88,13.71 10.88,14.689C10.88,14.689 10.88,16.56 10.88,16.56C10.88,17.584 11.711,18.415 12.735,18.415C12.735,18.415 14.605,18.415 14.605,18.415C15.356,18.415 16.003,17.968 16.295,17.326C16.587,17.968 17.234,18.415 17.985,18.415C17.985,18.415 19.855,18.415 19.855,18.415C20.606,18.415 21.253,17.968 21.545,17.326C21.837,17.968 22.484,18.415 23.235,18.415C23.235,18.415 25.105,18.415 25.105,18.415C26.129,18.415 26.96,17.584 26.96,16.56C26.96,16.56 26.96,14.689 26.96,14.689C26.96,13.711 26.2,12.908 25.239,12.84L25.239,11.633C25.239,10.448 24.263,9.472 23.078,9.472C23.078,9.472 19.987,9.472 19.987,9.472L19.987,7.91C20.95,7.843 21.711,7.04 21.711,6.06L21.711,4.19C21.711,3.166 20.88,2.335 19.856,2.335L17.986,2.335C16.962,2.335 16.131,3.166 16.131,4.19L16.131,6.06C16.131,7.039 16.891,7.842 17.853,7.91ZM17.853,12.839L17.853,11.606L14.762,11.606C14.747,11.606 14.736,11.618 14.736,11.633L14.736,12.839C15.431,12.888 16.02,13.319 16.295,13.924C16.57,13.32 17.159,12.888 17.853,12.839ZM23.104,12.839L23.104,11.633C23.104,11.618 23.093,11.606 23.078,11.606C23.078,11.606 19.987,11.606 19.987,11.606L19.987,12.839C20.681,12.888 21.27,13.319 21.545,13.924C21.82,13.319 22.409,12.888 23.104,12.839ZM19.487,7.915L19.487,7.915L19.487,7.915L19.487,7.915Z" style="fill:white;"/>
                </g>
            </g>
            <g id="logo" transform="matrix(1,0,0,1,3318.44,-1376.38)">
                <path d="M-3014.75,1278.69C-3014.75,1278.26 -3015.1,1277.91 -3015.54,1277.91L-3017.41,1277.91C-3017.85,1277.91 -3018.2,1278.26 -3018.2,1278.69L-3018.2,1280.57C-3018.2,1281 -3017.85,1281.35 -3017.41,1281.35L-3015.54,1281.35C-3015.1,1281.35 -3014.75,1281 -3014.75,1280.57L-3014.75,1278.69Z" style="fill:rgb(39,174,96);"/>
                <path id="rect1021" d="M-3020,1289.19C-3020,1288.76 -3020.36,1288.41 -3020.79,1288.41L-3022.66,1288.41C-3023.1,1288.41 -3023.45,1288.76 -3023.45,1289.19L-3023.45,1291.07C-3023.45,1291.5 -3023.1,1291.85 -3022.66,1291.85L-3020.79,1291.85C-3020.36,1291.85 -3020,1291.5 -3020,1291.07L-3020,1289.19Z" style="fill:rgb(52,152,219);"/>
                <path id="rect1023" d="M-3014.75,1289.19C-3014.75,1288.76 -3015.11,1288.41 -3015.54,1288.41L-3017.41,1288.41C-3017.85,1288.41 -3018.2,1288.76 -3018.2,1289.19L-3018.2,1291.07C-3018.2,1291.5 -3017.85,1291.85 -3017.41,1291.85L-3015.54,1291.85C-3015.11,1291.85 -3014.75,1291.5 -3014.75,1291.07L-3014.75,1289.19Z" style="fill:rgb(52,152,219);"/>
                <path id="rect1025" d="M-3009.5,1289.19C-3009.5,1288.76 -3009.86,1288.41 -3010.29,1288.41L-3012.16,1288.41C-3012.6,1288.41 -3012.95,1288.76 -3012.95,1289.19L-3012.95,1291.07C-3012.95,1291.5 -3012.6,1291.85 -3012.16,1291.85L-3010.29,1291.85C-3009.86,1291.85 -3009.5,1291.5 -3009.5,1291.07L-3009.5,1289.19Z" style="fill:rgb(52,152,219);"/>
                <g id="path1015" transform="matrix(1,0,0,1,-3035.4,1274.5)">
                    <path d="M23.604,13.335L23.235,13.335C22.487,13.335 21.88,13.942 21.88,14.689C21.88,14.689 21.88,16.56 21.88,16.56C21.88,17.308 22.487,17.915 23.235,17.915C23.235,17.915 25.105,17.915 25.105,17.915C25.853,17.915 26.46,17.308 26.46,16.56L26.46,14.689C26.46,13.942 25.853,13.335 25.105,13.335L24.739,13.335L24.739,11.633C24.739,10.722 23.989,9.972 23.078,9.972L19.487,9.972L19.487,7.415L19.856,7.415C20.604,7.415 21.211,6.808 21.211,6.06L21.211,4.19C21.211,3.442 20.604,2.835 19.856,2.835C19.856,2.835 17.986,2.835 17.986,2.835C17.238,2.835 16.631,3.442 16.631,4.19C16.631,4.19 16.631,6.06 16.631,6.06C16.631,6.808 17.238,7.415 17.986,7.415L18.353,7.415L18.353,9.972L14.762,9.972C13.851,9.972 13.102,10.722 13.102,11.633L13.102,13.335L12.735,13.335C11.987,13.335 11.38,13.942 11.38,14.689C11.38,14.689 11.38,16.56 11.38,16.56C11.38,17.308 11.987,17.915 12.735,17.915C12.735,17.915 14.605,17.915 14.605,17.915C15.353,17.915 15.96,17.308 15.96,16.56L15.96,14.689C15.96,13.942 15.353,13.335 14.605,13.335L14.236,13.335L14.236,11.633C14.236,11.331 14.46,11.106 14.762,11.106L18.353,11.106L18.353,13.335L17.985,13.335C17.237,13.335 16.63,13.942 16.63,14.689C16.63,14.689 16.63,16.56 16.63,16.56C16.63,17.308 17.237,17.915 17.985,17.915C17.985,17.915 19.855,17.915 19.855,17.915C20.603,17.915 21.21,17.308 21.21,16.56C21.21,16.56 21.21,14.689 21.21,14.689C21.21,13.942 20.603,13.335 19.855,13.335L19.487,13.335L19.487,11.106L23.078,11.106C23.38,11.106 23.604,11.331 23.604,11.633L23.604,13.335ZM14.826,14.689L14.826,16.56C14.826,16.682 14.727,16.781 14.605,16.781L12.735,16.781C12.613,16.781 12.514,16.682 12.514,16.56L12.514,14.689C12.514,14.568 12.613,14.468 12.735,14.468L14.605,14.468C14.727,14.468 14.826,14.568 14.826,14.689ZM25.326,14.689L25.326,16.56C25.326,16.682 25.227,16.781 25.105,16.781L23.235,16.781C23.113,16.781 23.014,16.682 23.014,16.56L23.014,14.689C23.014,14.568 23.113,14.468 23.235,14.468L25.105,14.468C25.227,14.468 25.326,14.568 25.326,14.689ZM20.076,14.689L20.076,16.56C20.076,16.682 19.977,16.781 19.855,16.781L17.985,16.781C17.863,16.781 17.764,16.682 17.764,16.56L17.764,14.689C17.764,14.568 17.863,14.468 17.985,14.468L19.855,14.468C19.977,14.468 20.076,14.568 20.076,14.689ZM20.077,4.189L20.077,6.06C20.077,6.182 19.978,6.281 19.856,6.281C19.856,6.281 17.986,6.281 17.986,6.281C17.864,6.281 17.765,6.182 17.765,6.06L17.765,4.19C17.765,4.068 17.864,3.969 17.986,3.969L19.856,3.969C19.978,3.969 20.077,4.068 20.077,4.189Z" style="fill:rgb(44,62,80);fill-rule:nonzero;"/>
                </g>
            </g>
        </g>
        <g id="text" transform="matrix(1,0,0,1,285.874,-76.5941)">
            <g transform="matrix(1,0,0,1,-2.82879,-25.2772)">
                <path d="M7.704,25.738C7.643,25.764 7.578,25.777 7.51,25.777L6.122,25.777C5.901,25.777 5.706,25.632 5.643,25.42L5.538,25.068L4.773,25.068L4.671,25.418C4.608,25.631 4.413,25.777 4.191,25.777L2.835,25.777C2.671,25.777 2.517,25.697 2.424,25.562C2.33,25.427 2.309,25.255 2.367,25.101L3.981,20.806C4.054,20.611 4.241,20.482 4.449,20.482L5.896,20.482C6.104,20.482 6.291,20.611 6.364,20.806L7.397,23.555L7.397,20.982C7.397,20.706 7.621,20.482 7.897,20.482L9.092,20.482C9.369,20.482 9.592,20.706 9.592,20.982L9.592,21.671C9.594,21.671 9.596,21.671 9.597,21.671L9.597,21.595C9.597,21.407 9.702,21.235 9.869,21.15L11.065,20.537C11.22,20.458 11.405,20.465 11.553,20.556C11.625,20.599 11.682,20.659 11.723,20.728C11.735,20.708 11.749,20.688 11.764,20.669C11.859,20.551 12.002,20.482 12.154,20.482L13.414,20.482C13.654,20.482 13.86,20.653 13.905,20.889C13.905,20.889 13.959,21.173 13.959,21.173L14.048,20.849C14.108,20.632 14.305,20.482 14.53,20.482L15.787,20.482C16.012,20.482 16.209,20.632 16.269,20.849C16.269,20.849 16.36,21.178 16.36,21.178L16.415,20.889C16.459,20.653 16.666,20.482 16.906,20.482L18.16,20.482C18.311,20.482 18.455,20.551 18.55,20.669C18.645,20.787 18.681,20.942 18.648,21.09L18.452,21.979C18.514,21.933 18.582,21.889 18.656,21.848C18.804,21.767 19.005,21.698 19.264,21.653C19.482,21.615 19.717,21.596 19.97,21.596C20.366,21.596 20.683,21.62 20.923,21.664C21.235,21.722 21.494,21.846 21.702,22.029C21.798,22.113 21.884,22.215 21.958,22.339L21.958,20.982C21.958,20.706 22.182,20.482 22.458,20.482L23.653,20.482C23.806,20.482 23.942,20.551 24.034,20.658C24.126,20.551 24.262,20.482 24.415,20.482L25.634,20.482C25.91,20.482 26.134,20.706 26.134,20.982C26.134,20.982 26.134,21.853 26.134,21.853L26.146,21.839C26.241,21.729 26.379,21.666 26.524,21.666L27.992,21.666C28.192,21.666 28.373,21.785 28.452,21.969C28.814,21.726 29.268,21.596 29.82,21.596C30.364,21.596 30.791,21.69 31.106,21.855C31.355,21.984 31.561,22.156 31.725,22.369L31.725,22.166C31.725,21.89 31.949,21.666 32.225,21.666L33.342,21.666C33.417,21.666 33.489,21.683 33.553,21.713C33.71,21.637 33.891,21.596 34.097,21.596C34.343,21.596 34.614,21.664 34.906,21.817C35.139,21.938 35.238,22.218 35.133,22.459L34.764,23.308C34.655,23.559 34.365,23.676 34.113,23.571C34.069,23.552 34.034,23.535 34.004,23.527C33.932,23.664 33.924,23.903 33.924,24.234L33.924,25.277C33.924,25.553 33.7,25.777 33.424,25.777L32.225,25.777C31.949,25.777 31.725,25.553 31.725,25.277L31.725,25.151C31.561,25.336 31.38,25.48 31.184,25.585C30.874,25.75 30.433,25.848 29.855,25.848C29.349,25.848 28.952,25.765 28.662,25.622C28.603,25.593 28.546,25.561 28.49,25.526L28.49,25.526C28.401,25.681 28.235,25.777 28.056,25.777L26.712,25.777C26.523,25.777 26.35,25.671 26.265,25.502L26.134,25.241L26.134,25.277C26.134,25.553 25.91,25.777 25.634,25.777L24.415,25.777C24.262,25.777 24.126,25.709 24.034,25.601C23.942,25.709 23.806,25.777 23.653,25.777L22.458,25.777C22.344,25.777 22.239,25.739 22.154,25.675C22.069,25.74 21.962,25.777 21.851,25.777L20.732,25.777C20.607,25.777 20.489,25.73 20.398,25.649L20.326,25.682C20.061,25.79 19.753,25.848 19.402,25.848C18.881,25.848 18.494,25.704 18.224,25.463C18.023,25.283 17.889,25.076 17.821,24.842L17.702,25.385C17.651,25.614 17.448,25.777 17.214,25.777L15.913,25.777C15.688,25.777 15.491,25.628 15.431,25.411C15.431,25.411 15.161,24.441 15.161,24.441L14.892,25.411C14.832,25.627 14.635,25.777 14.41,25.777L13.109,25.777C12.875,25.777 12.672,25.614 12.621,25.386L12.408,24.427L12.49,25.198C12.517,25.451 12.349,25.685 12.1,25.739C11.767,25.812 11.456,25.848 11.167,25.848C10.761,25.848 10.465,25.777 10.272,25.673C10.033,25.543 9.854,25.349 9.74,25.085C9.654,24.888 9.597,24.572 9.597,24.132L9.597,23.532L9.592,23.532L9.592,25.277C9.592,25.553 9.369,25.777 9.092,25.777L7.897,25.777C7.829,25.777 7.763,25.763 7.704,25.738ZM20.5,24.265C20.524,24.188 20.536,24.096 20.536,23.991L20.536,23.801C20.412,23.845 20.284,23.885 20.153,23.922L20.5,24.265ZM12.195,23.471L12.364,24.229C12.325,24.14 12.261,24.063 12.178,24.009C12.063,23.934 11.924,23.91 11.793,23.941L11.793,23.536C11.793,23.536 11.949,23.536 11.949,23.536C12.038,23.536 12.123,23.512 12.195,23.471ZM18.119,23.491L18.11,23.53L18.139,23.501L18.119,23.491ZM27.504,23.341L27.575,23.462C27.583,23.386 27.594,23.311 27.608,23.239L27.504,23.341ZM11.793,21.666L11.794,21.666L11.793,21.661L11.793,21.666Z" style="fill:white;fill-rule:nonzero;"/>
            </g>
            <text id="text1" serif:id="text" x="0px" y="0px" style="font-family:'Arial-Black', 'Arial Black', sans-serif;font-weight:900;font-size:6px;fill:rgb(44,62,80);">AltW<tspan x="15.226px 19.228px 21.226px 25.022px 29.024px " y="0px 0px 0px 0px 0px ">alker</tspan></text>
        </g>
    </g>
</svg>
